PathFileType	4	(x/y/z)	S08_BK_Cal_T01
DataRate	CameraRate	NumFrames	NumMarkers	Units	OrigDataRate	OrigDataStartFrame	OrigNumFrames
240	240	4	51	mm	240	301	2400
Frame#	Time	Sternum			R.Acromium			L.Acromium			Top.Head			R.ASIS			L.ASIS			R.PSIS			L.PSIS			R.Great.Tro			L.Great.Tro			R.Iliac.Crest			L.Iliac.Crest			V.Sacral			R.Thigh.Upper.Post			R.Thigh.Lower.Ant			R.Thigh.Lower.Post			R.Thigh.Upper.Ant			R.Knee.Lat			R.Knee.Med			R.Shank.Upper.Post			R.Shank.Lower.Ant			R.Shank.Lower.Post			R.Shank.Upper.Ant			R.Ankle.Lat			R.Ankle.Med			R.Heel.Upper			R.Heel.Med			R.Heel.Lat			R.Toe.Lat			R.Toe.Med			R.Toe.Tip			L.Thigh.Upper.Post			L.Thigh.Lower.Ant			L.Thigh.Lower.Post			L.Thigh.Upper.Ant			L.Knee.Lat			L.Knee.Med			L.Shank.Upper.Post			L.Shank.Lower.Ant			L.Shank.Lower.Post			L.Shank.Upper.Ant			L.Ankle.Lat			L.Ankle.Med			L.Heel.Upper			L.Heel.Med			L.Heel.Lat			L.Toe.Lat			L.Toe.Med			L.Toe.Tip			Cervical.Spine			Back			
		X1	Y1	Z1	X2	Y2	Z2	X3	Y3	Z3	X4	Y4	Z4	X5	Y5	Z5	X6	Y6	Z6	X7	Y7	Z7	X8	Y8	Z8	X9	Y9	Z9	X10	Y10	Z10	X11	Y11	Z11	X12	Y12	Z12	X13	Y13	Z13	X14	Y14	Z14	X15	Y15	Z15	X16	Y16	Z16	X17	Y17	Z17	X18	Y18	Z18	X19	Y19	Z19	X20	Y20	Z20	X21	Y21	Z21	X22	Y22	Z22	X23	Y23	Z23	X24	Y24	Z24	X25	Y25	Z25	X26	Y26	Z26	X27	Y27	Z27	X28	Y28	Z28	X29	Y29	Z29	X30	Y30	Z30	X31	Y31	Z31	X32	Y32	Z32	X33	Y33	Z33	X34	Y34	Z34	X35	Y35	Z35	X36	Y36	Z36	X37	Y37	Z37	X38	Y38	Z38	X39	Y39	Z39	X40	Y40	Z40	X41	Y41	Z41	X42	Y42	Z42	X43	Y43	Z43	X44	Y44	Z44	X45	Y45	Z45	X46	Y46	Z46	X47	Y47	Z47	X48	Y48	Z48	X49	Y49	Z49	X50	Y50	Z50	X51	Y51	Z51	

301	1.25	502.02	1157.7	316.38	415.01	1416.7	483.02	416.14	1436.9	148.87	421.94	1734.6	331.8	416.6	944.26	429.29	427.07	940.83	196.44	230.01	1022.2	347.35	240.39	1024.4	253.59	330.31	872.99	503.27	320.27	875.3	120.54	343.46	1038.1	468.28	366.13	1044	167.22	208.14	988.25	297.49	379.75	678.68	517.57	491.33	613.69	508	421.06	596.81	508.54	455.98	702.22	514.97	493.03	511.45	509.89	480.12	496.62	384.06	399.44	346.02	528.5	445.55	270.07	517.34	381.4	271.19	528.59	463.85	345.62	519.73	341.37	104.29	510.26	374.56	110.75	431.37	291.53	65.644	463.05	306.02	38.981	437.32	294.55	41.719	498.39	466.58	32.215	557.62	491.49	44.955	440.68	553.47	61.349	491.09	378.69	671.82	104.66	494.14	619.73	105.47	429.29	595.5	108.81	447.1	695.72	97.082	482.7	507.63	108.41	499.61	493.61	229.04	393.83	349.88	95.41	439.5	247.72	103.3	374.49	278.24	105.42	453.48	322.55	94.788	351.25	105.49	101.76	380.2	101.96	186.17	295.1	75.512	150.26	311.07	41.709	179.6	301.03	48.072	116.74	474.77	39.395	67.717	502.62	45.801	180.09	561.63	61.649	126.9	352.91	1477.5	306.28	271.01	1209.2	319.52
302	1.2542	501.99	1157.6	316.39	414.98	1416.7	483.02	416.12	1436.9	148.86	421.89	1734.6	331.78	416.55	944.22	429.3	427.03	940.8	196.45	229.97	1022.2	347.36	240.35	1024.4	253.6	330.26	872.97	503.27	320.22	875.3	120.54	343.42	1038.1	468.29	366.1	1044	167.24	208.09	988.24	297.5	379.73	678.66	517.56	491.31	613.69	507.98	421.05	596.8	508.52	455.95	702.22	514.96	493.03	511.45	509.87	480.1	496.62	384.04	399.45	346.02	528.49	445.55	270.07	517.32	381.4	271.19	528.58	463.85	345.62	519.71	341.37	104.29	510.26	374.55	110.75	431.36	291.53	65.642	463.05	306.02	38.982	437.32	294.54	41.717	498.39	466.58	32.218	557.62	491.49	44.955	440.68	553.46	61.351	491.09	378.65	671.81	104.66	494.1	619.73	105.44	429.26	595.5	108.8	447.05	695.72	97.064	482.68	507.63	108.39	499.61	493.62	229.02	393.81	349.88	95.399	439.49	247.72	103.28	374.48	278.24	105.41	453.47	322.56	94.773	351.25	105.49	101.76	380.2	101.96	186.17	295.1	75.511	150.26	311.07	41.709	179.6	301.03	48.071	116.74	474.77	39.392	67.714	502.62	45.804	180.09	561.63	61.651	126.89	352.88	1477.5	306.28	270.98	1209.2	319.52
303	1.2583	501.95	1157.6	316.41	414.95	1416.7	483.02	416.1	1436.8	148.86	421.83	1734.5	331.76	416.49	944.18	429.31	426.99	940.76	196.46	229.92	1022.1	347.37	240.31	1024.4	253.62	330.21	872.95	503.28	320.17	875.29	120.54	343.37	1038.1	468.31	366.07	1044	167.26	208.05	988.22	297.51	379.7	678.64	517.54	491.3	613.68	507.96	421.04	596.79	508.5	455.93	702.21	514.94	493.02	511.44	509.85	480.08	496.61	384.02	399.45	346.02	528.48	445.56	270.07	517.3	381.41	271.19	528.57	463.85	345.62	519.69	341.37	104.29	510.26	374.55	110.75	431.36	291.53	65.641	463.05	306.02	38.982	437.32	294.54	41.715	498.4	466.58	32.221	557.61	491.49	44.954	440.68	553.46	61.353	491.08	378.6	671.8	104.65	494.06	619.73	105.42	429.22	595.49	108.78	446.99	695.72	97.045	482.65	507.63	108.37	499.61	493.62	228.99	393.8	349.87	95.387	439.48	247.72	103.26	374.47	278.24	105.39	453.46	322.56	94.758	351.25	105.49	101.76	380.21	101.96	186.17	295.1	75.51	150.26	311.07	41.708	179.6	301.03	48.071	116.74	474.77	39.389	67.711	502.62	45.807	180.08	561.63	61.653	126.89	352.85	1477.5	306.27	270.94	1209.1	319.53
304	1.2625	501.91	1157.6	316.43	414.93	1416.6	483.02	416.08	1436.8	148.85	421.78	1734.5	331.74	416.43	944.14	429.31	426.95	940.73	196.47	229.88	1022.1	347.38	240.27	1024.4	253.63	330.16	872.93	503.28	320.13	875.28	120.55	343.33	1038	468.32	366.04	1043.9	167.29	208	988.21	297.52	379.68	678.62	517.53	491.28	613.68	507.93	421.02	596.78	508.48	455.9	702.2	514.92	493.02	511.43	509.82	480.05	496.6	384	399.45	346.02	528.46	445.56	270.06	517.28	381.41	271.18	528.56	463.85	345.62	519.67	341.37	104.29	510.26	374.55	110.75	431.36	291.52	65.639	463.05	306.02	38.982	437.32	294.54	41.713	498.4	466.58	32.224	557.61	491.49	44.953	440.67	553.46	61.355	491.08	378.55	671.79	104.65	494.02	619.73	105.39	429.18	595.49	108.77	446.94	695.72	97.025	482.63	507.63	108.34	499.61	493.62	228.97	393.78	349.87	95.375	439.47	247.71	103.25	374.46	278.23	105.38	453.44	322.56	94.744	351.24	105.49	101.76	380.21	101.97	186.16	295.1	75.509	150.26	311.07	41.707	179.6	301.03	48.07	116.74	474.76	39.387	67.707	502.62	45.81	180.08	561.62	61.655	126.89	352.82	1477.5	306.26	270.9	1209.1	319.53
